<?xml version="1.0" standalone="no"?>
<!DOCTYPE svg PUBLIC "-//W3C//DTD SVG 20010904//EN"
 "http://www.w3.org/TR/2001/REC-SVG-20010904/DTD/svg10.dtd">
<svg version="1.0" xmlns="http://www.w3.org/2000/svg"
 width="241.000000pt" height="209.000000pt" viewBox="0 0 241.000000 209.000000"
 preserveAspectRatio="xMidYMid meet">

<g transform="translate(0.000000,209.000000) scale(0.100000,-0.100000)"
fill="#000000" stroke="none">
<path d="M1658 1764 c-7 -25 -18 -49 -25 -51 -7 -3 -34 14 -61 36 -26 23 -54
41 -60 41 -23 0 -24 -53 -4 -158 17 -87 20 -120 12 -176 -4 -38 -6 -75 -3 -82
13 -33 -7 -61 -54 -79 -156 -59 -316 -160 -415 -263 -117 -121 -167 -258 -173
-472 l-3 -125 -32 -22 c-17 -12 -53 -25 -78 -29 -65 -10 -230 10 -284 34 -153
67 -202 224 -128 409 34 85 34 113 1 113 -57 0 -116 -151 -115 -290 2 -134 50
-231 148 -296 103 -68 94 -67 765 -71 379 -3 608 0 614 6 6 6 -12 50 -51 123
-79 148 -96 210 -76 277 8 27 22 59 32 71 l17 21 47 -21 c25 -11 101 -31 169
-45 67 -14 128 -30 135 -36 8 -6 19 -30 24 -53 19 -74 27 -86 60 -86 61 0 73
64 29 151 -36 72 -64 94 -156 127 -127 46 -148 61 -168 122 -17 51 -17 55 5
146 23 96 23 99 4 291 -7 61 -7 61 39 120 76 97 72 172 -10 188 -21 4 -46 14
-56 23 -11 9 -32 17 -48 18 -45 2 -57 10 -64 43 -10 48 -24 46 -37 -5z m-164
-1101 c2 -10 10 -50 16 -90 7 -41 27 -103 46 -143 19 -40 34 -75 34 -79 0 -16
-104 2 -137 24 -19 14 -41 21 -53 18 -24 -6 -25 7 -6 45 23 46 39 129 28 148
-7 13 -4 27 15 56 28 41 49 49 57 21z"/>
</g>
</svg>
